<svg height="480pt" viewBox="0 -8 480 480" width="480pt" xmlns="http://www.w3.org/2000/svg">
<path d="m328 224h32v32h-32zm0 0" fill="gray" />
<path d="m328 304h32v32h-32zm0 0" fill="gray"/>
<path d="m128 272h32v32h-32zm0 0" fill="gray"/>
<path d="m208 112h32v32h-32zm0 0" fill="gray"/>
<path d="m128 32h32v32h-32zm0 0" fill="gray"/>
<path d="m128 192h32v32h-32zm0 0" fill="gray"/>
<path d="m208 32h32v32h-32zm0 0" fill="gray"/>
<path d="m128 112h32v32h-32zm0 0" fill="gray"/>
<path d="m328 384h32v32h-32zm0 0" fill="gray"/>
<path d="m248 384h32v32h-32zm0 0" fill="gray"/>
<path d="m248 224h32v32h-32zm0 0" fill="gray"/>
<path d="m248 304h32v32h-32zm0 0" fill="gray"/>
<path d="m400 448v-256h-192v256h-16v-264c0-4.417969 3.582031-8 8-8h80v-176h-192v448h-88v16h480v-16zm-88-232c0-4.417969 3.582031-8 8-8h48c4.417969 0 8 3.582031 8 8v48c0 4.417969-3.582031 8-8 8h-48c-4.417969 0-8-3.582031-8-8zm0 80c0-4.417969 3.582031-8 8-8h48c4.417969 0 8 3.582031 8 8v48c0 4.417969-3.582031 8-8 8h-48c-4.417969 0-8-3.582031-8-8zm0 80c0-4.417969 3.582031-8 8-8h48c4.417969 0 8 3.582031 8 8v48c0 4.417969-3.582031 8-8 8h-48c-4.417969 0-8-3.582031-8-8zm-80-160c0-4.417969 3.582031-8 8-8h48c4.417969 0 8 3.582031 8 8v48c0 4.417969-3.582031 8-8 8h-48c-4.417969 0-8-3.582031-8-8zm0 80c0-4.417969 3.582031-8 8-8h48c4.417969 0 8 3.582031 8 8v48c0 4.417969-3.582031 8-8 8h-48c-4.417969 0-8-3.582031-8-8zm0 80c0-4.417969 3.582031-8 8-8h48c4.417969 0 8 3.582031 8 8v48c0 4.417969-3.582031 8-8 8h-48c-4.417969 0-8-3.582031-8-8zm-40-352c0-4.417969 3.582031-8 8-8h48c4.417969 0 8 3.582031 8 8v48c0 4.417969-3.582031 8-8 8h-48c-4.417969 0-8-3.582031-8-8zm0 80c0-4.417969 3.582031-8 8-8h48c4.417969 0 8 3.582031 8 8v48c0 4.417969-3.582031 8-8 8h-48c-4.417969 0-8-3.582031-8-8zm-80-80c0-4.417969 3.582031-8 8-8h48c4.417969 0 8 3.582031 8 8v48c0 4.417969-3.582031 8-8 8h-48c-4.417969 0-8-3.582031-8-8zm0 80c0-4.417969 3.582031-8 8-8h48c4.417969 0 8 3.582031 8 8v48c0 4.417969-3.582031 8-8 8h-48c-4.417969 0-8-3.582031-8-8zm0 80c0-4.417969 3.582031-8 8-8h48c4.417969 0 8 3.582031 8 8v48c0 4.417969-3.582031 8-8 8h-48c-4.417969 0-8-3.582031-8-8zm0 80c0-4.417969 3.582031-8 8-8h48c4.417969 0 8 3.582031 8 8v48c0 4.417969-3.582031 8-8 8h-48c-4.417969 0-8-3.582031-8-8zm48 184v-72c0-4.417969-3.582031-8-8-8h-16c-4.417969 0-8 3.582031-8 8v72h-16v-72c0-13.253906 10.746094-24 24-24h16c13.253906 0 24 10.746094 24 24v72zm0 0"  fill="gray"/>
</svg>