<?xml version="1.0" encoding="UTF-8"?>
<svg width="100%" viewBox="0 0 142 32" version="1.1" xmlns="http://www.w3.org/2000/svg" xmlns:xlink="http://www.w3.org/1999/xlink">
	<title>Pipedrive</title>
	<g id="Symbols-library" stroke="none" stroke-width="1" fill="#FFFFFF" fill-rule="evenodd">
		<g id="header/desktop/default" transform="translate(-60.000000, -28.000000)" fill="#ffffff" fill-rule="nonzero">
			<g id="Group" transform="translate(0.000000, 23.000000)">
				<g id="logo" transform="translate(60.000000, 5.000000)">
					<g id="Group-2">
						<path d="M7.06545761,16.0762341 C7.06545761,12.2758471 9.1407962,10.9226932 11.0821219,10.9226932 C13.4645733,10.9226932 15.0652829,12.978518 15.0652829,16.040821 C15.0652829,19.5336731 13.0290314,21.0937141 11.0151154,21.0937141 C8.29949302,21.0937141 7.06545761,18.4899179 7.06545761,16.0762341 Z M12.038825,6.45132069 C9.20594136,6.45132069 7.56614467,7.72619305 6.77509634,8.60592952 C6.68017054,7.8473432 6.18134476,6.8632312 4.23257394,6.8632312 L0,6.8632312 L0,11.2991905 L1.73472247,11.2991905 C2.02880632,11.2991905 2.12373212,11.392383 2.12373212,11.686871 L2.12373212,31.943176 L7.16782857,31.943176 L7.16782857,24.3405383 C7.16782857,24.1355149 7.16410599,23.9435385 7.15852213,23.7720644 C7.94584789,24.4952377 9.45163166,25.4942604 11.8024412,25.4942604 C16.7329989,25.4942604 20.1819697,21.5801787 20.1819697,15.9737225 C20.1819697,10.2778016 16.9079602,6.45132069 12.038825,6.45132069 L12.038825,6.45132069 Z" id="Fill-1"></path>
						<path d="M26.9559492,20.2939368 L26.9559492,9.56003354 C26.9559492,7.74650899 26.0830041,6.86304482 24.2943043,6.86304482 L19.7862594,6.86304482 L19.7862594,11.2990042 L21.5228432,11.2990042 C21.8150656,11.2990042 21.9099914,11.3940604 21.9099914,11.6866846 L21.9099914,22.3833109 C21.9099914,24.2247933 22.7550172,25.0802996 24.5660526,25.0802996 L29.0796815,25.0802996 L29.0796815,20.6834812 L27.3430977,20.6834812 C27.0639041,20.6834812 26.9559492,20.5716503 26.9559492,20.2939368" id="Fill-4"></path>
						<path d="M39.1049626,21.0937141 C36.3967855,21.0937141 35.1571662,18.4899179 35.1571662,16.0762341 C35.1571662,12.2758471 37.2325048,10.9226932 39.1756918,10.9226932 C41.5581431,10.9226932 43.1588528,12.978518 43.1588528,16.040821 C43.1588528,19.5336731 41.1244626,21.0937141 39.1049626,21.0937141 M40.1342562,6.45132069 C37.2976498,6.45132069 35.6615757,7.72619305 34.866805,8.60592952 C34.7737403,7.8473432 34.2767758,6.8632312 32.3280051,6.8632312 L28.0935698,6.8632312 L28.0935698,11.2991905 L29.8282924,11.2991905 C30.1205148,11.2991905 30.2154406,11.392383 30.2154406,11.686871 L30.2154406,31.943176 L35.2632596,31.943176 L35.2632596,24.3405383 C35.2632596,24.1355149 35.2576758,23.9435385 35.252092,23.7720644 C36.0356952,24.4952377 37.5470627,25.4942604 39.8960109,25.4942604 C44.8284301,25.4942604 48.2736782,21.5801787 48.2736782,15.9737225 C48.2736782,10.2778016 45.0015299,6.45132069 40.1342562,6.45132069" id="Fill-6"></path>
						<path d="M53.9614088,13.3443915 C54.5086281,11.5569608 55.8766765,10.5430272 57.7677473,10.5430272 C59.28656,10.5430272 60.4554504,11.7004771 60.6620535,13.3443915 L53.9614088,13.3443915 Z M57.7677473,6.45187985 C52.3327798,6.45187985 48.5320253,10.3678255 48.5320253,15.9742816 C48.5320253,21.4894093 52.6324477,25.4948196 58.2833246,25.4948196 C62.7280857,25.4948196 65.443708,22.8593379 65.559108,22.7475069 L65.7619887,22.5462114 L63.5638051,18.8949322 L63.2380792,19.204331 C63.2157438,19.2211057 61.222302,21.060724 58.5885763,21.060724 C56.0609442,21.060724 54.2108218,19.5155937 53.7734185,17.0925907 L65.7359307,17.0925907 L65.7638501,16.7608257 C65.7731565,16.7160933 65.8718049,15.6406528 65.8718049,15.1150475 C65.8718049,9.93354878 62.6145471,6.45187985 57.7677473,6.45187985 L57.7677473,6.45187985 Z" id="Fill-9"></path>
						<path d="M75.2232991,21.0937141 C72.824096,21.0937141 71.2717799,19.0826217 71.2717799,15.9737225 C71.2717799,12.9505603 72.8873798,10.9226932 75.2921669,10.9226932 C78.0189571,10.9226932 79.2418247,13.4407524 79.2418247,15.9401732 C79.2418247,19.7424241 77.1646247,21.0937141 75.2232991,21.0937141 M84.2189147,20.2941232 L84.2189147,2.7012576 C84.2189147,0.887733044 83.3348017,0.00426887434 81.5219052,0.00426887434 L77.0138603,0.00426887434 L77.0138603,4.44209206 L78.750444,4.44209206 C79.0426667,4.44209206 79.1375925,4.53528448 79.1375925,4.82977255 L79.1375925,8.00949802 C78.3930763,7.33664872 76.9394086,6.45132069 74.4359734,6.45132069 C69.5407802,6.45132069 66.1253125,10.3672663 66.1253125,15.9737225 C66.1253125,21.6696434 69.3974608,25.4942604 74.2665959,25.4942604 C77.0492249,25.4942604 78.653657,24.2007497 79.4372601,23.2986469 C79.5396312,24.0851909 80.0477633,25.0804861 81.9351116,25.0804861 L86.3054209,25.0804861 L86.3054209,20.6836675 L84.606063,20.6836675 C84.3268695,20.6836675 84.2189147,20.5718366 84.2189147,20.2941232" id="Fill-11"></path>
						<path d="M97.530676,6.62260838 C95.4311406,6.62260838 93.4991214,7.83597373 92.3525668,9.76878457 L92.3525668,9.35314636 C92.3525668,7.70177663 91.4423958,6.86304482 89.6555573,6.86304482 L85.318751,6.86304482 L85.318751,11.2990042 L87.0534736,11.2990042 C87.345696,11.2990042 87.4424832,11.3921966 87.4424832,11.6866846 L87.4424832,25.0802996 L92.4865796,25.0802996 L92.4865796,17.7907884 C92.4865796,16.8309064 92.6094249,15.9064376 92.8476699,15.0509311 C93.6070763,12.5365995 95.6247149,11.6419523 97.2570664,11.6419523 C97.8359277,11.6419523 98.2565792,11.7034593 98.2640244,11.7053231 L98.6846761,11.768694 L98.6846761,6.74748621 L98.3775632,6.69529846 C98.3626728,6.69157076 97.9345761,6.62260838 97.530676,6.62260838" id="Fill-14"></path>
						<path d="M105.864789,20.2939368 L105.864789,9.56003354 C105.864789,7.74650899 104.995567,6.86304482 103.206867,6.86304482 L99.1287798,6.86304482 L99.1287798,11.2990042 L100.431683,11.2990042 C100.725767,11.2990042 100.818831,11.3940604 100.818831,11.6866846 L100.818831,22.3833109 C100.818831,24.2247933 101.665718,25.0802996 103.480476,25.0802996 L107.990383,25.0802996 L107.990383,20.6834812 L106.251937,20.6834812 C105.972744,20.6834812 105.864789,20.5716503 105.864789,20.2939368" id="Fill-16"></path>
						<path d="M124.908766,6.8634176 L122.21734,6.8634176 C120.64455,6.8634176 119.801386,7.4095252 119.30256,8.74963223 L116.01366,17.9477244 C115.900121,18.2888087 115.794028,18.6708976 115.702825,19.0380757 C115.607899,18.6708976 115.49436,18.2832171 115.369654,17.9421328 L112.080754,8.74776838 C111.576344,7.39275055 110.761099,6.8634176 109.167835,6.8634176 L106.30517,6.8634176 L106.30517,11.2993769 L107.047825,11.2993769 C107.442419,11.2993769 107.568986,11.433574 107.662051,11.679602 L112.75268,25.0806724 L118.425892,25.0806724 L123.516521,11.679602 C123.609585,11.433574 123.739876,11.2993769 124.134469,11.2993769 L124.908766,11.2993769 L124.908766,6.8634176 Z" id="Fill-18"></path>
						<path d="M129.789441,13.3443915 C130.342244,11.5569608 131.704709,10.5430272 133.593918,10.5430272 C135.116454,10.5430272 136.283483,11.7004771 136.490086,13.3443915 L129.789441,13.3443915 Z M133.593918,6.45187985 C128.160812,6.45187985 124.361919,10.3678255 124.361919,15.9742816 C124.361919,21.4894093 128.458619,25.4948196 134.109496,25.4948196 C138.556118,25.4948196 141.273602,22.8593379 141.38714,22.7475069 L141.591882,22.5462114 L139.399282,18.8949322 L139.06425,19.204331 C139.047499,19.2211057 137.042889,21.060724 134.41847,21.060724 C131.888977,21.060724 130.038854,19.5155937 129.601451,17.0925907 L141.567685,17.0925907 L141.595605,16.7608257 C141.601189,16.7160933 141.70356,15.6406528 141.70356,15.1150475 C141.70356,9.93354878 138.444441,6.45187985 133.593918,6.45187985 L133.593918,6.45187985 Z" id="Fill-20"></path>
						<polygon id="Fill-22" points="26.610866 0.00557356827 22.113989 0.00557356827 22.113989 4.74906789 26.610866 4.74906789"></polygon>
						<polygon id="Fill-24" points="105.522126 0.00557356827 101.023387 0.00557356827 101.023387 4.74906789 105.522126 4.74906789"></polygon>
					</g>
				</g>
			</g>
		</g>
	</g>
</svg>